<svg width="955" height="658" viewBox="0 0 955 658" fill="none" xmlns="http://www.w3.org/2000/svg">
<rect width="955" height="658" fill="#E5E5E5"/>
<g clip-path="url(#clip0)">
<path d="M1095.66 -106H-122V730.909H1095.66V-106Z" fill="#E5E5E5"/>
<g filter="url(#filter0_b)">
<path d="M499.536 319.902L448.703 319.929L448.704 321.548L456.631 321.544L456.639 336.928L458.279 336.927L458.271 321.543L489.149 321.527L489.157 336.911L490.797 336.91L490.789 321.526L499.537 321.522L499.536 319.902Z" fill="#3F3D56"/>
<path d="M518.373 280.218L505.255 280.225L505.262 293.179L511.343 293.176L511.366 336.828L513.006 336.827L512.983 293.175L518.38 293.173L518.373 280.218Z" fill="#3F3D56"/>
<path d="M499.634 315.057L448.8 315.084L448.801 316.704L499.635 316.677L499.634 315.057Z" fill="#3F3D56"/>
<path d="M499.632 311.009L448.798 311.036L448.799 312.655L499.633 312.628L499.632 311.009Z" fill="#3F3D56"/>
<path d="M499.63 306.96L448.796 306.987L448.797 308.607L499.631 308.58L499.63 306.96Z" fill="#3F3D56"/>
<path d="M629.912 341.505L628.272 341.506C628.231 264.714 564.936 202.274 487.176 202.315C409.416 202.356 346.186 264.862 346.227 341.653L344.587 341.654C344.547 263.97 408.511 200.737 487.175 200.696C565.84 200.654 629.871 263.821 629.912 341.505Z" fill="#3F3D56"/>
<path d="M245.976 281.701C292.058 281.837 329.522 246.996 329.652 203.883C329.783 160.769 292.533 125.708 246.45 125.573C200.368 125.437 162.905 160.277 162.774 203.391C162.643 246.504 199.893 281.565 245.976 281.701Z" fill="#57B894"/>
<path opacity="0.2" d="M309.38 155.301C316.84 171.927 317.617 190.431 311.571 207.508C305.526 224.585 293.052 239.121 276.379 248.518C259.706 257.916 239.919 261.563 220.556 258.808C201.192 256.053 183.513 247.075 170.678 233.479C175.236 243.637 182.144 252.769 190.926 260.243C199.707 267.716 210.151 273.354 221.535 276.764C232.919 280.173 244.968 281.274 256.851 279.989C268.733 278.704 280.164 275.065 290.35 269.324C300.537 263.582 309.236 255.876 315.845 246.737C322.453 237.6 326.814 227.249 328.624 216.403C330.434 205.558 329.65 194.475 326.327 183.924C323.004 173.374 317.222 163.607 309.38 155.301Z" fill="black"/>
<path d="M248.095 250.812L248.357 250.812L253.232 542.071L243.262 542.076L248.095 250.812Z" fill="#3F3D56"/>
<path d="M274.888 371.017L271.797 365.226L249.644 376.758L252.735 382.549L274.888 371.017Z" fill="#3F3D56"/>
<path d="M423.353 314.931C432.786 314.926 440.43 307.37 440.425 298.055C440.42 288.739 432.768 281.191 423.335 281.196C413.902 281.201 406.259 288.757 406.264 298.073C406.269 307.388 413.92 314.936 423.353 314.931Z" fill="#57B894"/>
<path opacity="0.2" d="M436.044 286.791C437.639 290.47 437.857 294.59 436.66 298.414C435.462 302.238 432.926 305.517 429.506 307.664C426.086 309.812 422.005 310.689 417.99 310.138C413.975 309.587 410.29 307.645 407.593 304.658C408.567 306.905 410.024 308.917 411.865 310.554C413.704 312.191 415.883 313.412 418.248 314.135C420.614 314.858 423.11 315.063 425.564 314.738C428.018 314.414 430.373 313.566 432.462 312.254C434.551 310.942 436.327 309.196 437.665 307.14C439.004 305.082 439.875 302.762 440.215 300.34C440.556 297.918 440.359 295.452 439.639 293.112C438.919 290.772 437.692 288.616 436.044 286.791Z" fill="black"/>
<path d="M423.391 298.064L423.438 298.064L424.308 345.884L422.525 345.885L423.391 298.064Z" fill="#3F3D56"/>
<path d="M426.515 324.11L426.121 323.373L423.298 324.842L423.692 325.579L426.515 324.11Z" fill="#3F3D56"/>
<path d="M581.169 286.798C605.319 286.786 624.885 267.443 624.873 243.594C624.861 219.745 605.274 200.423 581.124 200.436C556.974 200.448 537.407 219.791 537.42 243.64C537.432 267.489 557.019 286.811 581.169 286.798Z" fill="#57B894"/>
<path opacity="0.2" d="M613.658 214.758C617.742 224.178 618.301 234.724 615.235 244.514C612.169 254.304 605.678 262.697 596.922 268.196C588.167 273.695 577.716 275.939 567.438 274.529C557.161 273.118 547.726 268.146 540.82 260.498C543.315 266.253 547.046 271.404 551.757 275.594C556.468 279.783 562.044 282.911 568.1 284.761C574.156 286.611 580.548 287.138 586.831 286.306C593.114 285.475 599.138 283.305 604.488 279.945C609.838 276.586 614.383 272.119 617.811 266.852C621.238 261.585 623.465 255.647 624.338 249.445C625.209 243.244 624.706 236.931 622.862 230.941C621.018 224.952 617.877 219.43 613.658 214.758Z" fill="black"/>
<path d="M581.267 243.617L581.386 243.617L583.613 366.043L579.048 366.046L581.267 243.617Z" fill="#3F3D56"/>
<path d="M589.263 310.299L588.255 308.41L581.029 312.171L582.037 314.06L589.263 310.299Z" fill="#3F3D56"/>
<path d="M280.243 523.218C280.243 523.218 280.803 511.501 292.41 512.857L280.243 523.218Z" fill="#3F3D56"/>
<path d="M276.958 512.07C280.165 512.068 282.765 509.498 282.764 506.33C282.762 503.162 280.159 500.595 276.952 500.597C273.743 500.599 271.143 503.168 271.145 506.337C271.146 509.504 273.749 512.072 276.958 512.07Z" fill="#57B894"/>
<path d="M277.654 515.993L276.014 515.994L276.02 527.33L277.66 527.329L277.654 515.993Z" fill="#3F3D56"/>
<path d="M321.224 496.476C321.224 496.476 321.784 484.761 333.391 486.116L321.224 496.476Z" fill="#3F3D56"/>
<path d="M317.939 485.329C321.146 485.327 323.746 482.758 323.745 479.589C323.743 476.422 321.14 473.854 317.933 473.856C314.724 473.857 312.124 476.428 312.126 479.595C312.127 482.764 314.73 485.331 317.939 485.329Z" fill="#57B894"/>
<path d="M318.635 489.253L316.995 489.254L317.001 500.589L318.641 500.588L318.635 489.253Z" fill="#3F3D56"/>
<path d="M444.751 405.765C444.751 405.765 445.195 396.459 454.415 397.535L444.751 405.765Z" fill="#3F3D56"/>
<path d="M442.141 396.911C444.69 396.909 446.754 394.868 446.753 392.351C446.751 389.835 444.685 387.797 442.137 387.798C439.589 387.799 437.523 389.84 437.525 392.356C437.526 394.873 439.593 396.912 442.141 396.911Z" fill="#57B894"/>
<path d="M442.695 400.027L441.392 400.027L441.397 409.03L442.699 409.029L442.695 400.027Z" fill="#3F3D56"/>
<path d="M625.113 376.522C625.113 376.522 625.558 367.216 634.777 368.293L625.113 376.522Z" fill="#3F3D56"/>
<path d="M622.504 367.668C625.052 367.667 627.117 365.625 627.116 363.109C627.114 360.592 625.047 358.554 622.499 358.555C619.951 358.557 617.886 360.597 617.888 363.114C617.889 365.63 619.955 367.669 622.504 367.668Z" fill="#57B894"/>
<path d="M623.057 370.784L621.755 370.785L621.76 379.787L623.062 379.787L623.057 370.784Z" fill="#3F3D56"/>
<path d="M452.963 430.051C452.963 430.051 453.407 420.745 462.627 421.821L452.963 430.051Z" fill="#3F3D56"/>
<path d="M450.353 421.197C452.901 421.195 454.966 419.154 454.965 416.638C454.963 414.121 452.896 412.083 450.348 412.084C447.8 412.085 445.735 414.126 445.737 416.642C445.738 419.159 447.805 421.198 450.353 421.197Z" fill="#57B894"/>
<path d="M450.906 424.313L449.604 424.313L449.609 433.316L450.911 433.315L450.906 424.313Z" fill="#3F3D56"/>
<path d="M433.294 447.874C433.294 447.874 433.739 438.568 442.958 439.645L433.294 447.874Z" fill="#3F3D56"/>
<path d="M430.685 439.02C433.233 439.019 435.297 436.977 435.296 434.461C435.295 431.944 433.228 429.906 430.68 429.907C428.132 429.909 426.067 431.949 426.068 434.466C426.07 436.982 428.137 439.021 430.685 439.02Z" fill="#57B894"/>
<path d="M431.238 442.136L429.935 442.137L429.94 451.139L431.243 451.139L431.238 442.136Z" fill="#3F3D56"/>
<path d="M652.998 391.891C652.998 391.891 653.443 382.586 662.662 383.662L652.998 391.891Z" fill="#3F3D56"/>
<path d="M650.388 383.037C652.937 383.036 655.001 380.995 655 378.479C654.999 375.962 652.932 373.923 650.383 373.924C647.835 373.926 645.771 375.967 645.772 378.483C645.773 381 647.84 383.038 650.388 383.037Z" fill="#57B894"/>
<path d="M650.941 386.153L649.639 386.153L649.644 395.157L650.946 395.156L650.941 386.153Z" fill="#3F3D56"/>
<path d="M387.361 412.272C387.361 412.272 387.806 402.966 397.025 404.043L387.361 412.272Z" fill="#3F3D56"/>
<path d="M384.751 403.418C387.3 403.417 389.365 401.375 389.363 398.859C389.362 396.343 387.296 394.304 384.747 394.305C382.198 394.307 380.134 396.348 380.135 398.864C380.137 401.38 382.203 403.42 384.751 403.418Z" fill="#57B894"/>
<path d="M385.305 406.534L384.003 406.535L384.007 415.538L385.309 415.537L385.305 406.534Z" fill="#3F3D56"/>
<path d="M600.511 366.009C600.511 366.009 600.956 356.703 610.175 357.78L600.511 366.009Z" fill="#3F3D56"/>
<path d="M597.901 357.155C600.449 357.154 602.514 355.112 602.513 352.596C602.512 350.08 600.444 348.041 597.896 348.042C595.348 348.044 593.284 350.085 593.285 352.601C593.286 355.117 595.353 357.157 597.901 357.155Z" fill="#57B894"/>
<path d="M598.454 360.271L597.152 360.272L597.157 369.275L598.459 369.274L598.454 360.271Z" fill="#3F3D56"/>
<path d="M208.913 525.683C208.913 525.683 209.473 513.968 221.08 515.323L208.913 525.683Z" fill="#3F3D56"/>
<path d="M205.628 514.536C208.835 514.534 211.435 511.965 211.434 508.796C211.432 505.629 208.829 503.061 205.622 503.063C202.413 503.064 199.814 505.635 199.815 508.802C199.817 511.971 202.419 514.538 205.628 514.536Z" fill="#57B894"/>
<path d="M206.324 518.46L204.684 518.461L204.69 529.796L206.33 529.795L206.324 518.46Z" fill="#3F3D56"/>
<path d="M773.821 522.15C773.821 522.15 774.382 510.433 785.989 511.789L773.821 522.15Z" fill="#3F3D56"/>
<path d="M770.536 511.002C773.745 511 776.344 508.431 776.342 505.263C776.34 502.094 773.739 499.527 770.53 499.529C767.321 499.531 764.722 502.1 764.724 505.269C764.726 508.437 767.327 511.004 770.536 511.002Z" fill="#57B894"/>
<path d="M771.233 514.925L769.593 514.926L769.598 526.262L771.238 526.261L771.233 514.925Z" fill="#3F3D56"/>
<path d="M726.252 494.646C726.252 494.646 726.813 482.929 738.421 484.285L726.252 494.646Z" fill="#3F3D56"/>
<path d="M722.967 483.498C726.176 483.497 728.775 480.926 728.773 477.759C728.772 474.59 726.17 472.023 722.961 472.024C719.753 472.026 717.154 474.596 717.155 477.765C717.157 480.932 719.759 483.5 722.967 483.498Z" fill="#57B894"/>
<path d="M723.664 487.421L722.024 487.422L722.03 498.758L723.67 498.757L723.664 487.421Z" fill="#3F3D56"/>
<path d="M719.716 535.943C719.716 535.943 720.275 524.226 731.883 525.582L719.716 535.943Z" fill="#3F3D56"/>
<path d="M716.43 524.795C719.638 524.794 722.237 522.223 722.236 519.055C722.234 515.887 719.632 513.32 716.424 513.321C713.215 513.323 710.616 515.893 710.618 519.061C710.619 522.229 713.221 524.797 716.43 524.795Z" fill="#57B894"/>
<path d="M717.126 528.718L715.486 528.719L715.492 540.055L717.132 540.054L717.126 528.718Z" fill="#3F3D56"/>
<path d="M218.361 544.949C218.361 544.949 476.594 477.61 474.098 408.789C469.579 389.764 438.421 384.923 438.421 384.923C438.421 384.923 364.624 375.245 404.787 351.743C444.949 328.241 554.819 333.851 554.819 333.851C554.819 333.851 441.682 351.724 491.702 361.414C531.878 363.822 583.537 374.32 583.537 374.32C583.537 374.32 688.495 396.127 703.282 449.558C718.067 502.988 705.79 544.288 705.79 544.288L218.361 544.949Z" fill="#E6E6E6"/>
<path d="M499.66 545.063L498.692 543.729C500.057 542.764 501.403 541.803 502.728 540.849L503.707 542.176C502.376 543.132 501.028 544.094 499.66 545.063Z" fill="white"/>
<path d="M511.71 536.299L510.707 534.993C513.39 532.983 516.034 530.962 518.563 528.985L519.594 530.271C517.055 532.256 514.403 534.284 511.71 536.299ZM527.343 524.067L526.281 522.805C528.878 520.671 531.418 518.528 533.83 516.434L534.928 517.665C532.505 519.77 529.952 521.924 527.343 524.067ZM542.317 511.04L541.179 509.843C543.658 507.545 546.048 505.243 548.283 503.003L549.466 504.155C547.216 506.41 544.811 508.727 542.317 511.04ZM556.316 496.969L555.079 495.873C557.355 493.366 559.509 490.855 561.48 488.41L562.78 489.432C560.789 491.901 558.615 494.437 556.316 496.969ZM568.731 481.483L567.358 480.559C569.288 477.762 571.029 474.971 572.533 472.262L573.991 473.051C572.461 475.806 570.691 478.643 568.731 481.483ZM578.277 464.073L576.729 463.474C577.932 460.471 578.875 457.372 579.546 454.21L581.174 454.539C580.484 457.792 579.515 460.982 578.277 464.073ZM580.484 444.63C580.433 441.441 579.983 438.27 579.143 435.19L580.748 434.761C581.623 437.972 582.092 441.277 582.146 444.602L580.484 444.63ZM575.504 426.334C573.924 423.521 572.07 420.866 569.97 418.408L571.243 417.355C573.414 419.894 575.329 422.638 576.96 425.545L575.504 426.334ZM563.1 411.487C560.63 409.34 558.042 407.329 555.349 405.462L556.307 404.122C559.05 406.023 561.686 408.072 564.201 410.259L563.1 411.487ZM547.02 400.186C544.3 398.61 541.368 397.037 538.303 395.511L539.051 394.046C542.147 395.587 545.111 397.177 547.86 398.77L547.02 400.186ZM529.321 391.322C526.427 390.054 523.346 388.779 520.162 387.53L520.776 386.006C523.98 387.262 527.081 388.546 529.995 389.822L529.321 391.322ZM510.843 384.047C507.882 382.988 504.716 381.902 501.436 380.818L501.963 379.262C505.257 380.35 508.435 381.441 511.409 382.503L510.843 384.047ZM491.955 377.784C489.059 376.883 485.941 375.935 482.423 374.885L482.904 373.314C486.428 374.366 489.551 375.316 492.453 376.217L491.955 377.784ZM472.86 372.055C469.498 371.064 466.293 370.118 463.292 369.207L463.781 367.638C466.778 368.549 469.978 369.494 473.336 370.483L472.86 372.055ZM453.762 366.169C450.565 365.128 447.438 363.888 444.402 362.454L445.148 360.987C448.119 362.389 451.177 363.601 454.304 364.617L453.762 366.169ZM441.208 355.419L440.023 354.269C441.537 352.748 444.533 351.259 449.181 349.717L449.71 351.273C445.377 352.71 442.516 354.106 441.208 355.419ZM459.214 348.595L458.811 347.003C461.685 346.294 464.959 345.553 468.541 344.8L468.886 346.405C465.323 347.154 462.069 347.891 459.214 348.595ZM478.628 344.467L478.315 342.856C481.376 342.276 484.674 341.676 488.115 341.072L488.407 342.686C484.972 343.29 481.682 343.889 478.628 344.467ZM498.208 341.015L497.933 339.396C501.063 338.877 504.34 338.345 507.762 337.801L508.025 339.421C504.606 339.965 501.334 340.496 498.208 341.015Z" fill="white"/>
<path d="M539.294 323.93L539.038 322.309C540.653 322.061 542.297 321.811 543.969 321.558L544.219 323.18C542.549 323.433 540.906 323.682 539.294 323.93Z" fill="white"/>
<path d="M554.731 171.165L562.276 165.199C556.412 164.563 554.004 167.723 553.02 170.223C548.438 168.347 543.452 170.811 543.452 170.811L558.557 176.217C557.794 174.208 556.466 172.455 554.731 171.165Z" fill="#3F3D56"/>
<path d="M414.553 217.39L422.096 211.424C416.233 210.788 413.825 213.947 412.841 216.448C408.259 214.571 403.274 217.036 403.274 217.036L418.378 222.442C417.615 220.433 416.288 218.68 414.553 217.39Z" fill="#3F3D56"/>
<path d="M451.398 121.828L458.942 115.863C453.079 115.227 450.671 118.387 449.686 120.886C445.104 119.011 440.119 121.475 440.119 121.475L455.223 126.881C454.461 124.872 453.134 123.12 451.398 121.828Z" fill="#3F3D56"/>
</g>
<path d="M720.849 315.858C716.95 308.017 709.234 307.652 709.234 307.652C709.234 307.652 701.717 306.508 696.895 318.449C692.4 329.58 686.197 340.327 695.897 342.932L697.648 336.443L698.734 343.416C700.115 343.534 701.5 343.562 702.884 343.5C713.271 343.101 723.164 343.617 722.845 339.181C722.421 333.284 724.601 323.402 720.849 315.858Z" fill="#2F2E41"/>
<path d="M685.413 535.991L684.449 541.726L683.244 546.745C683.244 546.745 672.762 561.37 680.955 562.087C689.148 562.804 692.522 558.073 692.522 558.073V551.19L694.931 553.197L698.305 551.621V534.701L685.413 535.991Z" fill="#2F2E41"/>
<path d="M741.42 523.129L746.837 540.483C746.837 540.483 746.333 553.712 750.742 553.712C755.152 553.712 760.317 539.061 759.688 536.784C759.058 534.508 754.649 526.543 754.649 526.543L760.317 526.4L760.822 521.706L749.105 511.465L741.42 523.129Z" fill="#2F2E41"/>
<path d="M674.374 369.937C674.374 369.937 670.013 366.092 674.374 357.22C678.736 348.348 685.156 337.85 685.156 337.85C685.156 337.85 688.306 322.768 691.819 324.69C695.333 326.612 689.275 340.955 689.275 340.955L682.734 357.812L674.374 369.937Z" fill="#FFB9B9"/>
<path d="M709.084 337.195C714.442 337.195 718.784 331.993 718.784 325.577C718.784 319.161 714.442 313.959 709.084 313.959C703.725 313.959 699.383 319.161 699.383 325.577C699.383 331.993 703.725 337.195 709.084 337.195Z" fill="#FFB9B9"/>
<path d="M703.694 332.944L707.14 347.757L718.784 341.174C718.784 341.174 713.437 334.589 715.457 329.802L703.694 332.944Z" fill="#FFB9B9"/>
<path d="M707.959 345.578L707.008 351.519L700.461 359.836L705.698 369.937L719.862 343.35L718.251 340.364L707.959 345.578Z" fill="#FFB9B9"/>
<path d="M705.85 343.523C705.85 343.523 717.191 336.817 719.363 338.532C721.535 340.247 722.018 340.872 722.018 340.872C722.018 340.872 709.016 348.953 707.613 348.811C706.212 348.669 705.85 343.523 705.85 343.523Z" fill="#CFCCE0"/>
<path d="M702.247 362.244C702.247 362.244 699.537 358.757 702.247 356.107L695.965 359.873L693.993 373.962L696.457 382.611L710.007 365.871L715.551 358.339L712.471 353.038C712.471 353.038 707.175 361.826 702.247 362.244Z" fill="#CFCCE0"/>
<path d="M752.199 512.338C745.512 530.192 712.326 543.15 712.326 543.15L697.218 465.833L700.19 539.407L657.345 531.488C657.345 531.488 659.079 493.19 669.976 446.972C678.275 411.775 687.793 391.86 691.863 384.363C693.136 382.016 693.875 380.886 693.875 380.886C693.771 380.54 693.672 380.195 693.578 379.852C691.893 373.477 691.487 366.738 692.389 360.152L699.571 356.409C699.571 356.409 703.286 353.817 704.524 351.657C705.763 349.498 707.373 349.21 707.373 349.21C708.24 353.098 697.961 362.168 697.961 362.168V380.309C697.961 380.309 698.953 379.734 701.304 369.656C703.658 359.576 714.307 348.202 717.155 344.315C720.003 340.427 725.08 341.579 725.08 341.579L718.866 385.622L718.641 387.221L719.039 390.682L727.309 462.81L752.199 512.338Z" fill="#2F2E41"/>
<path d="M692.899 360.82H691.931C691.931 360.82 689.148 358.98 687.938 360.112C686.728 361.244 684.55 360.82 684.55 360.82V353.038C684.55 353.038 675.232 354.878 673.418 368.035C671.602 381.193 659.501 386.146 659.501 386.146C659.501 386.146 680.677 405.105 686.607 402.417C692.536 399.729 698.345 367.752 692.899 360.82Z" fill="#2F2E41"/>
<path d="M691.837 383.841C693.1 381.552 693.833 380.451 693.833 380.451C693.729 380.113 693.631 379.777 693.538 379.442L697.087 381.504L718.614 385.069L718.39 386.628L718.784 390.004L696.718 383.61L691.837 383.841Z" fill="#CFCCE0"/>
<path d="M714.473 395.506C714.473 395.506 716.789 423.212 731.719 423.802L729.917 379.442L723.096 382.537L714.473 395.506Z" fill="#2F2E41"/>
<path opacity="0.1" d="M714.473 395.506C714.473 395.506 716.789 423.212 731.719 423.802L729.917 379.442L723.096 382.537L714.473 395.506Z" fill="black"/>
<path d="M728.485 386.835L722.582 400.215C722.582 400.215 718.311 419.205 712.157 417.335C706.002 415.465 716.051 397.561 716.051 397.561L719.316 386.835H728.485Z" fill="#FFB9B9"/>
<path d="M722.521 343.009L724.563 341.43C724.563 341.43 732.981 340.712 733.108 351.195C733.237 361.677 734.767 398.867 733.108 404.467C731.451 410.068 733.108 423.278 733.108 423.278L730.047 424.858L726.859 389.39C726.859 389.39 725.711 388.098 724.052 389.678C722.394 391.257 712.317 400.16 712.317 400.16L722.521 343.009Z" fill="#2F2E41"/>
<path d="M698.305 381.555L672.436 441.661L677.363 450.206L698.305 381.555Z" fill="#CFCCE0"/>
<path d="M697.256 381.555L699.383 449.076L691.837 454.431L697.256 381.555Z" fill="#CFCCE0"/>
<path d="M696.688 384.723C697.58 384.723 698.305 384.013 698.305 383.139C698.305 382.264 697.58 381.555 696.688 381.555C695.795 381.555 695.071 382.264 695.071 383.139C695.071 384.013 695.795 384.723 696.688 384.723Z" fill="#CFCCE0"/>
<path d="M710.161 315.015C713.137 315.015 715.551 311.942 715.551 308.15C715.551 304.358 713.137 301.285 710.161 301.285C707.185 301.285 704.772 304.358 704.772 308.15C704.772 311.942 707.185 315.015 710.161 315.015Z" fill="#2F2E41"/>
<path d="M703.852 306.566C703.852 305.001 704.386 303.491 705.352 302.327C706.318 301.164 707.647 300.429 709.083 300.265C708.268 300.171 707.443 300.264 706.663 300.537C705.882 300.811 705.164 301.26 704.554 301.853C703.944 302.448 703.457 303.174 703.123 303.987C702.789 304.798 702.616 305.676 702.616 306.566C702.616 307.455 702.789 308.334 703.123 309.145C703.457 309.957 703.944 310.684 704.554 311.278C705.164 311.872 705.882 312.321 706.663 312.594C707.443 312.868 708.268 312.961 709.083 312.867C707.647 312.702 706.318 311.967 705.352 310.804C704.386 309.64 703.852 308.131 703.852 306.566Z" fill="#2F2E41"/>
<path d="M719.503 315.663L711.958 310.791L701.538 312.784L699.383 324.521L704.749 324.266L706.249 319.954V324.195L708.725 324.077L710.161 317.212L711.059 324.521L719.862 324.299L719.503 315.663Z" fill="#2F2E41"/>
<path opacity="0.1" d="M213.05 66.7L197.53 76.55L206.95 59.41C204.278 57.283 200.975 56.1046 197.56 56.06H197.31C196.232 56.0791 195.154 56.0021 194.09 55.83L188.85 59.16L191.11 55.06C187.38 53.7581 184.159 51.3074 181.91 48.06L172.49 54.06L178.44 43.25C172.93 36.64 165.51 32.58 157.35 32.58C147.56 32.58 138.84 38.41 133.21 47.48C131.545 50.2034 129.186 52.4351 126.374 53.9463C123.563 55.4575 120.4 56.1939 117.21 56.08H116.68C105.87 56.08 97.11 68.34 97.11 83.45C97.11 98.56 105.85 110.81 116.7 110.81C119.077 110.802 121.417 110.219 123.52 109.11C127.197 107.321 131.22 106.352 135.308 106.271C139.397 106.189 143.455 106.998 147.2 108.64C150.365 110.062 153.795 110.801 157.265 110.81C160.735 110.819 164.168 110.096 167.34 108.69C171.058 107.079 175.078 106.286 179.129 106.364C183.18 106.441 187.167 107.388 190.82 109.14C192.9 110.229 195.212 110.801 197.56 110.81C208.37 110.81 217.13 98.56 217.13 83.44C217.196 77.606 215.793 71.8492 213.05 66.7Z" fill="#57B894"/>
<path opacity="0.1" d="M738.136 115.28L729.158 121.888L734.607 110.389C733.062 108.962 731.151 108.171 729.175 108.142H729.031C728.407 108.154 727.784 108.103 727.168 107.987L724.136 110.221L725.444 107.471C723.286 106.597 721.423 104.953 720.121 102.774L714.672 106.8L718.114 99.5475C714.926 95.1129 710.634 92.3891 705.913 92.3891C700.25 92.3891 695.205 96.3004 691.948 102.385C690.985 104.212 689.62 105.71 687.993 106.723C686.367 107.737 684.537 108.231 682.692 108.155H682.385C676.131 108.155 671.064 116.38 671.064 126.517C671.064 136.654 676.12 144.873 682.397 144.873C683.772 144.867 685.126 144.476 686.342 143.732C688.47 142.531 690.796 141.881 693.162 141.827C695.527 141.773 697.875 142.315 700.041 143.417C701.872 144.371 703.856 144.867 705.864 144.873C707.871 144.878 709.857 144.394 711.693 143.45C713.843 142.37 716.169 141.837 718.513 141.889C720.856 141.941 723.163 142.577 725.276 143.752C726.48 144.483 727.817 144.867 729.175 144.873C735.429 144.873 740.497 136.654 740.497 126.51C740.535 122.596 739.723 118.734 738.136 115.28Z" fill="#57B894"/>
</g>
<defs>
<filter id="filter0_b" x="158.732" y="111.78" width="631.262" height="437.284" filterUnits="userSpaceOnUse" color-interpolation-filters="sRGB">
<feFlood flood-opacity="0" result="BackgroundImageFix"/>
<feGaussianBlur in="BackgroundImage" stdDeviation="2"/>
<feComposite in2="SourceAlpha" operator="in" result="effect1_backgroundBlur"/>
<feBlend mode="normal" in="SourceGraphic" in2="effect1_backgroundBlur" result="shape"/>
</filter>
<clipPath id="clip0">
<rect width="955" height="658" fill="white"/>
</clipPath>
</defs>
</svg>
