<svg width="888" height="678" viewBox="0 0 888 678" fill="none" xmlns="http://www.w3.org/2000/svg">
<rect width="888" height="678" fill="#E5E5E5"/>
<path d="M690.252 205.457C724.645 206.241 753.157 179.111 753.935 144.859C754.713 110.608 727.464 82.2051 693.071 81.4206C658.678 80.636 630.167 107.766 629.388 142.018C628.61 176.27 655.86 204.672 690.252 205.457Z" fill="#FF6584"/>
<path d="M504 594C504 594 504.465 583.923 514 585.095Z" fill="#3F3D56"/>
<path d="M501.5 584C504.538 584 507 581.985 507 579.5C507 577.015 504.538 575 501.5 575C498.462 575 496 577.015 496 579.5C496 581.985 498.462 584 501.5 584Z" fill="#57B894"/>
<path d="M502 588H501V597H502V588Z" fill="#3F3D56"/>
<path d="M161 592C161 592 161.465 583.043 171 584.084Z" fill="#3F3D56"/>
<path d="M158.5 583C161.538 583 164 580.761 164 578C164 575.239 161.538 573 158.5 573C155.462 573 153 575.239 153 578C153 580.761 155.462 583 158.5 583Z" fill="#57B894"/>
<path d="M159 586H158V596H159V586Z" fill="#3F3D56"/>
<path d="M243 593C243 593 243.465 582.923 253 584.095Z" fill="#3F3D56"/>
<path d="M239.5 584C241.985 584 244 581.761 244 579C244 576.239 241.985 574 239.5 574C237.015 574 235 576.239 235 579C235 581.761 237.015 584 239.5 584Z" fill="#57B894"/>
<path d="M240 587H238V596H240V587Z" fill="#3F3D56"/>
<path d="M457.977 137.169L468 129.113C460.214 128.249 457.014 132.517 455.705 135.895C449.622 133.357 443 136.683 443 136.683L463.054 144C462.042 141.284 460.281 138.915 457.977 137.169Z" fill="#3F3D56"/>
<path d="M607.977 217.625L618 210.105C610.214 209.3 607.014 213.283 605.705 216.435C599.622 214.066 593 217.171 593 217.171L613.054 224C612.042 221.465 610.281 219.254 607.977 217.625V217.625Z" fill="#3F3D56"/>
<path d="M445.977 287.169L456 279.113C448.214 278.249 445.014 282.517 443.705 285.895C437.622 283.357 431 286.683 431 286.683L451.054 294C450.042 291.284 448.281 288.915 445.977 287.169V287.169Z" fill="#3F3D56"/>
<path d="M640 597C640 597 640.465 588.043 650 589.084Z" fill="#3F3D56"/>
<path d="M547 597C547 597 547.465 588.043 557 589.084Z" fill="#3F3D56"/>
<path d="M208 597C208 597 208.512 588.043 219 589.084Z" fill="#3F3D56"/>
<path d="M681 597C681 597 681.465 588.043 691 589.084Z" fill="#3F3D56"/>
<path d="M662 597C662 597 662.465 588.043 672 589.084Z" fill="#3F3D56"/>
<path d="M622 597C622 597 621.488 588.043 611 589.084Z" fill="#3F3D56"/>
<path d="M461 597C461 597 460.535 588.043 451 589.084Z" fill="#3F3D56"/>
<path d="M328 597C328 597 327.488 588.043 317 589.084Z" fill="#3F3D56"/>
<path d="M186 597C186 597 185.535 588.043 176 589.084Z" fill="#3F3D56"/>
<path d="M723 597C723 597 722.535 588.043 713 589.084Z" fill="#3F3D56"/>
<path d="M663 598C663 598 662.535 587.923 653 589.095Z" fill="#3F3D56"/>
<path d="M798 596H109V598H798V596Z" fill="#3F3D56"/>
<path d="M733.514 575C733.514 575 725.293 577.371 721.419 582.894C717.545 588.417 719.486 595 719.486 595C719.486 595 727.707 592.629 731.581 587.106C735.455 581.583 733.514 575 733.514 575Z" fill="#3F3D56"/>
<path d="M745 583.208C745 583.208 742.235 589.562 735.055 592.761C727.875 595.96 719 594.792 719 594.792C719 594.792 721.765 588.438 728.945 585.239C736.125 582.04 745 583.208 745 583.208Z" fill="#57B894"/>
<path d="M294 597.736C283.922 596.016 274.23 594.54 264.924 593.306L268.603 586.123C267.362 585.689 261.912 589.803 261.912 589.803L266.74 568.952C260.501 569.71 257.328 591 257.328 591L250.358 583.802L253.732 591.894C229.251 588.914 204.62 587.353 179.962 587.219L183.11 581.071C181.87 580.637 176.42 584.75 176.42 584.75L181.248 563.9C175.008 564.657 171.836 585.947 171.836 585.947L164.865 578.749L168.44 587.32C154.264 587.556 140.109 588.524 126.032 590.221C129.217 580.644 140.036 571.535 140.036 571.535C131.774 574.01 127.439 578.157 125.175 582.023C124.972 562.261 128.235 542.619 134.813 524C134.813 524 117.735 561.425 119.914 586.546L120.175 591.007C105.696 593.095 100 598 100 598L294 597.736Z" fill="#3F3D56"/>
<path d="M556.432 316.238C560.653 305.539 569.003 305.04 569.003 305.04C569.003 305.04 577.14 303.479 582.359 319.774C587.224 334.962 593.939 349.627 583.44 353.182L581.544 344.327L580.369 353.841C578.875 354.003 577.375 354.041 575.877 353.956C564.634 353.412 553.927 354.116 554.272 348.063C554.73 340.017 552.371 326.533 556.432 316.238Z" fill="#2F2E41"/>
<path d="M540.1 371L539 400.134L546.15 440L550 430.186L545.416 399.827L548.35 376.214L540.1 371Z" fill="#FFB9B9"/>
<path d="M583.419 391.238V408.252L590 433H584.968L578 411.964V390L583.419 391.238Z" fill="#FFB9B9"/>
<path d="M545.4 531L542 543.982L547.8 548L551 537.491L545.4 531Z" fill="#FFB9B9"/>
<path d="M569.953 549.165L569 571L577.81 567.215L579 548L569.953 549.165Z" fill="#FFB9B9"/>
<path d="M590 433.284L582.215 550.086L568.466 551L567.657 471.812L564.22 505.315L551.481 542.168L544 532.117L547.235 444.096C545.618 431 550.875 420.949 550.875 420.949L551.57 409.583L551.704 407.436L552.088 401.152L576.857 401L578.507 405.112L579.336 407.177L582.418 414.858L590 433.284Z" fill="#2F2E41"/>
<path d="M544.361 540.701L543.584 537L538.723 549.336C538.723 549.336 534.056 570 540.084 570C546.111 570 547.861 556.121 547.861 556.121L550 544.093C550 544.093 544.945 543.168 544.361 540.701Z" fill="#2F2E41"/>
<path d="M570.611 567.91C570.611 567.91 577.87 565.438 578.071 566.983C578.273 568.528 579.684 577.801 579.684 577.801C579.684 577.801 592.79 596.964 583.919 597.892C575.047 598.819 571.015 593.564 570.611 590.783C570.208 588.001 569.402 585.528 567.789 584.292C566.176 583.056 564.159 579.037 565.369 575.947C566.579 572.856 569.809 566 569.809 566L570.611 567.91Z" fill="#2F2E41"/>
<path d="M570 345C575.523 345 580 338.284 580 330C580 321.716 575.523 315 570 315C564.477 315 560 321.716 560 330C560 338.284 564.477 345 570 345Z" fill="#FFB9B9"/>
<path d="M564.083 335C564.083 335 561.252 351.108 558.422 353.235C555.592 355.363 567.924 366 567.924 366L575 362.657C575 362.657 567.722 354.451 573.989 342.294L564.083 335Z" fill="#FFB9B9"/>
<path d="M567.238 358.57C567.238 358.57 562.467 354.606 559.742 350.033C557.017 345.459 547 350.033 547 350.033V388.145L548.635 400.951L551.497 404L577.254 401.561L584 368.632L572.341 357.866C572.341 357.866 570.508 361.619 567.238 358.57Z" fill="#575A89"/>
<path d="M548.853 350.618L546.559 350L537 371.959L550 380L548.853 350.618Z" fill="#575A89"/>
<path d="M581.077 367L584.461 368.213L587 392.787L576 394L581.077 367Z" fill="#575A89"/>
<path d="M579.104 404L550.144 406.599L550 409L580 406.309L579.104 404Z" fill="#575A89"/>
<path d="M568.5 314C572.09 314 575 309.747 575 304.5C575 299.253 572.09 295 568.5 295C564.91 295 562 299.253 562 304.5C562 309.747 564.91 314 568.5 314Z" fill="#2F2E41"/>
<path d="M574.667 302.5C574.666 300.401 574.088 298.376 573.041 296.815C571.995 295.255 570.555 294.269 569 294.048C569.221 294.016 569.444 294 569.667 294C571.346 294 572.957 294.896 574.145 296.49C575.333 298.084 576 300.246 576 302.5C576 304.754 575.333 306.916 574.145 308.51C572.957 310.104 571.346 311 569.667 311C569.444 311 569.221 310.984 569 310.952C570.555 310.731 571.995 309.745 573.041 308.185C574.088 306.624 574.666 304.599 574.667 302.5Z" fill="#2F2E41"/>
<path d="M558.386 314.387L566.491 308L577.684 310.613L580 326L574.235 325.667L572.625 320.013V325.573L569.965 325.419L568.421 316.419L567.456 326L558 325.71L558.386 314.387Z" fill="#2F2E41"/>
<path opacity="0.1" d="M151 457C166.464 457 179 455.209 179 453C179 450.791 166.464 449 151 449C135.536 449 123 450.791 123 453C123 455.209 135.536 457 151 457Z" fill="#57B894"/>
<path opacity="0.1" d="M259 470C274.464 470 287 467.985 287 465.5C287 463.015 274.464 461 259 461C243.536 461 231 463.015 231 465.5C231 467.985 243.536 470 259 470Z" fill="#57B894"/>
<path opacity="0.1" d="M385 454C400.464 454 413 451.985 413 449.5C413 447.015 400.464 445 385 445C369.536 445 357 447.015 357 449.5C357 451.985 369.536 454 385 454Z" fill="#57B894"/>
<path opacity="0.1" d="M215.5 502C226.822 502 236 500.881 236 499.5C236 498.119 226.822 497 215.5 497C204.178 497 195 498.119 195 499.5C195 500.881 204.178 502 215.5 502Z" fill="#57B894"/>
<path opacity="0.1" d="M327 499C338.046 499 347 497.657 347 496C347 494.343 338.046 493 327 493C315.954 493 307 494.343 307 496C307 497.657 315.954 499 327 499Z" fill="#57B894"/>
<path d="M257 465C257 465 302.736 361.778 315.298 364.037C321.267 365.11 324.014 371.621 325.254 378.165C326.799 386.624 325.93 395.407 322.768 403.294C316.277 419.811 298.85 451.175 257 465Z" fill="#57B894"/>
<path d="M316 384C316 384 267.391 461.593 258 465" stroke="#565987" stroke-miterlimit="10"/>
<path d="M320 396H309" stroke="#565987" stroke-miterlimit="10"/>
<path d="M306 424L289 425" stroke="#565987" stroke-miterlimit="10"/>
<path d="M296 401L298 412" stroke="#565987" stroke-miterlimit="10"/>
<path d="M277 433L278 442" stroke="#565987" stroke-miterlimit="10"/>
<path d="M259 465C259 465 212.606 361.778 199.862 364.037C193.806 365.11 191.013 371.621 189.755 378.165C188.189 386.625 189.073 395.408 192.283 403.294C198.863 419.811 216.549 451.175 259 465Z" fill="#57B894"/>
<path d="M201 384C201 384 248.771 461.593 258 465" stroke="#565987" stroke-miterlimit="10"/>
<path d="M196 396H207" stroke="#565987" stroke-miterlimit="10"/>
<path d="M209 424L227 425" stroke="#565987" stroke-miterlimit="10"/>
<path d="M220 401L219 412" stroke="#565987" stroke-miterlimit="10"/>
<path d="M238 433V442" stroke="#565987" stroke-miterlimit="10"/>
<path d="M338.209 490.204C339.44 488.971 340.56 487.524 340.911 485.769C341.262 484.014 340.566 481.89 339.021 481.247C337.292 480.53 335.439 481.837 334.036 483.156C332.632 484.476 331.02 485.983 329.186 485.702C330.125 484.766 330.827 483.581 331.221 482.263C331.616 480.945 331.691 479.538 331.438 478.179C331.36 477.62 331.148 477.093 330.823 476.652C329.857 475.533 328.115 476.015 326.964 476.893C323.271 479.7 322.28 485.112 322.255 489.989C321.886 488.234 322.2 486.399 322.188 484.597C322.175 482.795 321.726 480.792 320.341 479.827C319.471 479.315 318.492 479.063 317.504 479.097C315.854 479.03 314.02 479.211 312.9 480.524C311.503 482.152 311.866 484.885 313.078 486.68C314.291 488.475 316.156 489.594 317.842 490.833C319.209 491.718 320.375 492.927 321.252 494.37C321.353 494.572 321.438 494.782 321.504 495H331.826C334.142 493.72 336.289 492.107 338.209 490.204Z" fill="#57B894"/>
<path d="M162.301 448.178C163.491 446.955 164.574 445.504 164.913 443.752C165.253 441.999 164.586 439.886 163.087 439.238C161.415 438.522 159.624 439.826 158.267 441.143C156.91 442.461 155.351 443.966 153.578 443.685C154.492 442.754 155.176 441.573 155.562 440.257C155.949 438.941 156.026 437.534 155.786 436.175C155.709 435.617 155.504 435.092 155.191 434.65C154.257 433.533 152.573 434.015 151.46 434.898C147.89 437.693 146.932 443.103 146.914 447.964C146.557 446.212 146.855 444.38 146.849 442.615C146.843 440.849 146.396 438.816 145.064 437.853C144.223 437.342 143.276 437.091 142.321 437.124C140.732 437.064 138.959 437.238 137.87 438.549C136.519 440.174 136.87 442.902 138.042 444.694C139.215 446.487 141.018 447.603 142.654 448.841C143.972 449.726 145.097 450.932 145.944 452.371C146.042 452.572 146.124 452.783 146.188 453H156.167C158.395 451.709 160.458 450.087 162.301 448.178V448.178Z" fill="#57B894"/>
<path d="M221.205 490.204C222.437 488.971 223.559 487.524 223.91 485.769C224.262 484.014 223.571 481.89 222.018 481.247C220.287 480.53 218.432 481.837 217.027 483.156C215.621 484.476 214.007 485.983 212.17 485.702C213.117 484.769 213.825 483.586 214.225 482.268C214.626 480.95 214.706 479.541 214.457 478.179C214.378 477.62 214.166 477.093 213.84 476.652C212.873 475.533 211.129 476.015 209.976 476.893C206.31 479.7 205.287 485.112 205.268 489.989C204.898 488.234 205.207 486.399 205.2 484.597C205.194 482.795 204.732 480.792 203.352 479.827C202.481 479.315 201.5 479.063 200.511 479.097C198.865 479.03 197.029 479.211 195.901 480.524C194.502 482.152 194.866 484.885 196.08 486.68C197.294 488.475 199.161 489.594 200.856 490.833C202.222 491.718 203.388 492.927 204.264 494.37C204.368 494.57 204.452 494.781 204.516 495H214.814C217.133 493.72 219.282 492.107 221.205 490.204V490.204Z" fill="#57B894"/>
<path d="M386.46 405C386.46 405 390.265 410.613 384.705 419.086C379.146 427.56 374.566 434.715 376.418 440C376.418 440 384.802 424.296 391.632 424.043C398.462 423.79 393.973 414.464 386.46 405Z" fill="#57B894"/>
<path opacity="0.1" d="M386.363 405C386.701 405.542 386.967 406.135 387.153 406.762C393.882 415.592 397.473 423.835 391.001 424.047C384.969 424.238 377.737 436.278 376 439.317C376.061 439.549 376.128 439.781 376.208 440C376.208 440 384.687 424.293 391.594 424.04C398.501 423.787 393.962 414.465 386.363 405Z" fill="black"/>
<path d="M393 413.047C393 414.676 392.779 416 392.503 416C392.228 416 392 414.676 392 413.047C392 411.419 392.283 412.18 392.559 412.18C392.834 412.18 393 411.413 393 413.047Z" fill="#FFD037"/>
<path d="M395.836 414.51C393.896 415.572 392.207 416.206 392.016 415.939C391.825 415.671 393.33 414.594 395.271 413.54C397.211 412.486 396.447 413.25 396.593 413.54C396.738 413.83 397.777 413.456 395.836 414.51Z" fill="#FFD037"/>
<path d="M366.533 405C366.533 405 362.733 410.613 368.293 419.086C373.854 427.56 378.434 434.715 376.582 440C376.582 440 368.191 424.296 361.366 424.043C354.541 423.79 359.024 414.464 366.533 405Z" fill="#57B894"/>
<path opacity="0.1" d="M366.632 405C366.298 405.543 366.034 406.137 365.848 406.762C359.116 415.592 355.517 423.835 361.999 424.047C368.033 424.238 375.268 436.278 377 439.317C376.944 439.549 376.877 439.777 376.798 440C376.798 440 368.309 424.293 361.405 424.04C354.501 423.787 359.036 414.465 366.632 405Z" fill="black"/>
<path d="M357.714 414.51C358.886 415.572 359.906 416.206 359.994 415.939C360.082 415.671 359.205 414.594 358.032 413.54C356.86 412.486 357.321 413.25 357.234 413.54C357.146 413.83 356.541 413.456 357.714 414.51Z" fill="#FFD037"/>
<path d="M360 439.293C360 439.293 370.749 438.935 373.984 436.432C377.219 433.928 390.493 430.955 391.325 434.962C392.157 438.968 407.48 454.89 395.342 454.996C383.205 455.102 367.148 452.95 363.913 450.81C360.679 448.671 360 439.293 360 439.293Z" fill="#A8A8A8"/>
<path opacity="0.2" d="M395.563 453.593C383.43 453.701 367.363 451.508 364.128 449.336C361.682 447.683 360.685 441.739 360.361 439H360C360 439 360.679 448.56 363.914 450.732C367.149 452.905 383.209 455.104 395.349 454.996C398.854 454.996 400.065 453.586 399.997 451.549C399.52 452.804 398.187 453.573 395.563 453.593Z" fill="black"/>
<path d="M196.322 101.971C192.202 97.9495 187.11 94.9987 181.511 93.3897C175.913 91.7807 169.988 91.5651 164.282 92.7626C158.575 93.9601 153.27 96.5323 148.852 100.243C144.435 103.954 141.047 108.684 139 114L203 111.117C201.313 107.728 199.056 104.637 196.322 101.971V101.971Z" fill="#F2F2F2"/>
<path d="M426.305 169.252C423.408 166.327 419.827 164.181 415.891 163.011C411.954 161.841 407.789 161.684 403.776 162.555C399.764 163.426 396.034 165.296 392.927 167.995C389.821 170.694 387.439 174.134 386 178L431 175.903C429.814 173.439 428.227 171.191 426.305 169.252V169.252Z" fill="#F2F2F2"/>
<path d="M257 465V181" stroke="#3F3D56" stroke-width="2" stroke-miterlimit="10"/>
<path d="M257 194C263.627 194 269 188.627 269 182C269 175.373 263.627 170 257 170C250.373 170 245 175.373 245 182C245 188.627 250.373 194 257 194Z" fill="#3F3D56"/>
<path d="M220 399C226.627 399 232 393.404 232 386.5C232 379.596 226.627 374 220 374C213.373 374 208 379.596 208 386.5C208 393.404 213.373 399 220 399Z" fill="#3F3D56"/>
<path d="M257 243C257 243 255.279 206.053 220 210.347Z" fill="#3F3D56"/>
<path d="M257 347C257 347 255.279 311.172 220 315.337Z" fill="#3F3D56"/>
<path d="M256.495 461C256.495 461 264.133 389.424 220 386" stroke="#3F3D56" stroke-width="2" stroke-miterlimit="10"/>
<path d="M294 285C300.627 285 306 279.851 306 273.5C306 267.149 300.627 262 294 262C287.373 262 282 267.149 282 273.5C282 279.851 287.373 285 294 285Z" fill="#3F3D56"/>
<path d="M257.505 345C257.505 345 249.867 277.415 294 274" stroke="#3F3D56" stroke-width="2" stroke-miterlimit="10"/>
</svg>
